<?xml version="1.0" encoding="UTF-8" standalone="no"?>
<!-- Created with Inkscape (http://www.inkscape.org/) -->

<svg
   width="400mm"
   height="400mm"
   viewBox="0 0 400 400"
   version="1.1"
   id="svg1"
   xml:space="preserve"
   inkscape:version="1.3.2 (091e20e, 2023-11-25, custom)"
   sodipodi:docname="remote.svg"
   xmlns:inkscape="http://www.inkscape.org/namespaces/inkscape"
   xmlns:sodipodi="http://sodipodi.sourceforge.net/DTD/sodipodi-0.dtd"
   xmlns="http://www.w3.org/2000/svg"
   xmlns:svg="http://www.w3.org/2000/svg"><sodipodi:namedview
     id="namedview1"
     pagecolor="#ffffff"
     bordercolor="#000000"
     borderopacity="0.25"
     inkscape:showpageshadow="2"
     inkscape:pageopacity="0.0"
     inkscape:pagecheckerboard="0"
     inkscape:deskcolor="#d1d1d1"
     inkscape:document-units="mm"
     inkscape:zoom="0.37014941"
     inkscape:cx="724.03195"
     inkscape:cy="663.24569"
     inkscape:window-width="1920"
     inkscape:window-height="1027"
     inkscape:window-x="-8"
     inkscape:window-y="-6"
     inkscape:window-maximized="1"
     inkscape:current-layer="layer2" /><defs
     id="defs1" /><g
     inkscape:groupmode="layer"
     id="layer2"
     inkscape:label="çizim"><rect
       style="display:none;fill:#000000;stroke-width:0.264583"
       id="rect4"
       width="398.14441"
       height="398.85922"
       x="0.71480143"
       y="1.4296029"
       ry="9.6033773" /><g
       id="g4"
       inkscape:label="g4"
       style="display:inline"><path
         style="fill:#ffffff;stroke-width:0.264583"
         d="m 47.363408,83.903197 0.14804,198.638273 c 1.987651,29.98168 22.49718,27.66882 39.550753,29.44196 10.618788,-2.09284 9.898793,-19.96044 -3.790806,-20.34402 -9.02042,-0.37653 -12.018741,0.94599 -16.047751,-15.16322 L 66.907746,87.314922 C 68.099523,72.938793 76.237077,68.628413 85.480838,68.935314 95.721405,69.107313 101.29598,49.402727 83.903197,49.533211 55.917657,49.347829 47.343638,59.996186 47.363408,83.903197 Z"
         id="path1"
         sodipodi:nodetypes="ccccccccc"
         inkscape:label="path1" /><path
         style="fill:#ffffff;stroke-width:0.264583"
         d="m 84.408636,224.92122 c 1.061372,9.0908 18.772554,5.06937 18.701314,-0.50544 -2.46625,-51.45902 8.97971,-52.10176 23.75046,-53.24737 14.49824,-0.71815 9.85268,-20.2144 0.83482,-19.3294 -44.774765,-0.24675 -47.586185,33.22011 -43.286594,73.08221 z"
         id="path2"
         sodipodi:nodetypes="ccccc" /><path
         style="fill:#ffffff;stroke-width:0.264583"
         d="m 142.02891,128.88744 1.51632,74.80526 c 2.22764,11.89997 23.19864,27.50695 41.95159,27.29381 11.43815,0.0387 10.53537,-21.26309 -1.01088,-18.70131 -8.54666,-3.0637 -18.30545,-4.61686 -21.22852,-17.69044 l -0.56413,-24.23313 22.2981,-0.028 c 10.38114,0.84612 12.16088,-18.02857 -0.0613,-18.34392 l -22.98224,-0.23739 -0.53347,-22.73958 c -0.30113,-11.95667 -19.47508,-13.68825 -19.38545,-0.12527 z"
         id="path3"
         sodipodi:nodetypes="cccccccccccc" /><path
         style="fill:#ffffff;stroke-width:0.264583"
         d="m 199.55719,164.39358 c -6.17457,47.33226 10.95483,84.4515 59.22857,56.48411 7.47987,8.45903 18.61303,9.61148 29.82102,10.61426 18.99098,-2.21779 26.18389,-14.44215 28.18469,-30.05841 0.50745,-14.77858 0.36848,-26.00962 0.24,-38.8804 0.21293,-16.70489 -20.40253,-15.4029 -19.74284,-0.0613 l -0.003,37.51475 c 0.47075,10.35146 -28.54222,18.05355 -28.71813,-0.50281 l -0.81051,-36.30952 c -0.16321,-17.49967 -18.98969,-17.24517 -19.14358,-0.25272 l -0.26618,32.33738 c 0.33221,16.84832 -25.68533,29.15885 -27.97533,-2.7059 l 0.19535,-28.28279 c -0.0779,-14.51547 -21.03318,-15.78516 -21.01041,0.10337 z"
         id="path4"
         sodipodi:nodetypes="ccccccccccccccc" /><path
         style="fill:#ffffff;stroke-width:0.264583"
         d="m 352.93069,83.562466 -0.14804,198.638274 c -1.98765,29.98168 -22.49718,27.66882 -39.55075,29.44196 -10.61879,-2.09284 -9.89879,-19.96044 3.79081,-20.34402 9.02042,-0.37653 12.01874,0.94599 16.04775,-15.16322 l 0.31589,-189.161271 c -1.19177,-14.376127 -9.32933,-18.686507 -18.57309,-18.379606 -10.24057,0.171999 -15.81514,-19.532587 1.57764,-19.402103 27.98554,-0.185382 36.55956,10.462975 36.53979,34.369986 z"
         id="path1-3"
         sodipodi:nodetypes="ccccccccc"
         inkscape:label="path1-3" /></g></g></svg>
